<svg xmlns="http://www.w3.org/2000/svg" viewBox="-30 -30 348 258" width="348mm" height="258mm" font-family="Helvetica, Arial, sans-serif">
<rect x="-30" y="-30" width="348" height="258" fill="#fff"/>
<defs><pattern id="hatch" width="3" height="3" patternUnits="userSpaceOnUse" patternTransform="rotate(45)"><line x1="0" y1="0" x2="0" y2="3" stroke="#111" stroke-width="0.25"/></pattern><pattern id="hatch2" width="3" height="3" patternUnits="userSpaceOnUse" patternTransform="rotate(135)"><line x1="0" y1="0" x2="0" y2="3" stroke="#111" stroke-width="0.25"/></pattern></defs>
<rect x="0.00" y="0.00" width="248.00" height="150.00" fill="#efe3c8" stroke="#111" stroke-width="0.7"/>
<rect x="49.00" y="0.00" width="150.00" height="12.00" fill="#e2d2ad" stroke="#111" stroke-width="0.7"/>
<rect x="49.00" y="24.00" width="150.00" height="12.00" fill="#e2d2ad" stroke="#111" stroke-width="0.7"/>
<rect x="49.00" y="12.00" width="150.00" height="12.00" fill="#fff" stroke="#111" stroke-width="0.25" stroke-dasharray="1.5 1"/>
<line x1="-8.00" y1="75.00" x2="256.00" y2="75.00" stroke="#111" stroke-width="0.25" stroke-linecap="round" stroke-dasharray="6 1.5 1 1.5"/>
<line x1="124.00" y1="-8.00" x2="124.00" y2="158.00" stroke="#111" stroke-width="0.25" stroke-linecap="round" stroke-dasharray="6 1.5 1 1.5"/>
<circle cx="20.00" cy="75.00" r="1.35" fill="none" stroke="#111" stroke-width="0.7"/>
<line x1="20.00" y1="69.00" x2="20.00" y2="81.00" stroke="#111" stroke-width="0.25" stroke-linecap="round" stroke-dasharray="6 1.5 1 1.5"/>
<circle cx="228.00" cy="75.00" r="1.35" fill="none" stroke="#111" stroke-width="0.7"/>
<line x1="228.00" y1="69.00" x2="228.00" y2="81.00" stroke="#111" stroke-width="0.25" stroke-linecap="round" stroke-dasharray="6 1.5 1 1.5"/>
<circle cx="124.00" cy="18.00" r="3.00" fill="none" stroke="#111" stroke-width="0.7"/>
<line x1="124.00" y1="10.00" x2="124.00" y2="26.00" stroke="#111" stroke-width="0.25" stroke-linecap="round" stroke-dasharray="6 1.5 1 1.5"/>
<line x1="116.00" y1="18.00" x2="132.00" y2="18.00" stroke="#111" stroke-width="0.25" stroke-linecap="round" stroke-dasharray="6 1.5 1 1.5"/>
<line x1="0.00" y1="0.00" x2="0.00" y2="-8.00" stroke="#111" stroke-width="0.25" stroke-linecap="round"/>
<line x1="248.00" y1="0.00" x2="248.00" y2="-8.00" stroke="#111" stroke-width="0.25" stroke-linecap="round"/>
<line x1="0.00" y1="-10.00" x2="248.00" y2="-10.00" stroke="#111" stroke-width="0.25" stroke-linecap="round"/>
<polygon points="0.00,-10.00 3.00,-9.10 3.00,-10.90" fill="#111" stroke="#111" stroke-width="0.2" stroke-linejoin="round"/>
<polygon points="248.00,-10.00 245.00,-10.90 245.00,-9.10" fill="#111" stroke="#111" stroke-width="0.2" stroke-linejoin="round"/>
<text x="124.00" y="-11.20" font-size="3.5" text-anchor="middle" fill="#111" font-weight="normal">248</text>
<line x1="0.00" y1="150.00" x2="0.00" y2="162.00" stroke="#111" stroke-width="0.25" stroke-linecap="round"/>
<line x1="20.00" y1="150.00" x2="20.00" y2="162.00" stroke="#111" stroke-width="0.25" stroke-linecap="round"/>
<line x1="0.00" y1="160.00" x2="20.00" y2="160.00" stroke="#111" stroke-width="0.25" stroke-linecap="round"/>
<polygon points="0.00,160.00 3.00,160.90 3.00,159.10" fill="#111" stroke="#111" stroke-width="0.2" stroke-linejoin="round"/>
<polygon points="20.00,160.00 17.00,159.10 17.00,160.90" fill="#111" stroke="#111" stroke-width="0.2" stroke-linejoin="round"/>
<text x="10.00" y="164.20" font-size="3.5" text-anchor="middle" fill="#111" font-weight="normal">20</text>
<line x1="20.00" y1="160.00" x2="228.00" y2="160.00" stroke="#111" stroke-width="0.25" stroke-linecap="round"/>
<polygon points="20.00,160.00 23.00,160.90 23.00,159.10" fill="#111" stroke="#111" stroke-width="0.2" stroke-linejoin="round"/>
<polygon points="228.00,160.00 225.00,159.10 225.00,160.90" fill="#111" stroke="#111" stroke-width="0.2" stroke-linejoin="round"/>
<text x="124.00" y="164.20" font-size="3.5" text-anchor="middle" fill="#111" font-weight="normal">208</text>
<line x1="228.00" y1="160.00" x2="248.00" y2="160.00" stroke="#111" stroke-width="0.25" stroke-linecap="round"/>
<polygon points="228.00,160.00 231.00,160.90 231.00,159.10" fill="#111" stroke="#111" stroke-width="0.2" stroke-linejoin="round"/>
<polygon points="248.00,160.00 245.00,159.10 245.00,160.90" fill="#111" stroke="#111" stroke-width="0.2" stroke-linejoin="round"/>
<text x="238.00" y="164.20" font-size="3.5" text-anchor="middle" fill="#111" font-weight="normal">20</text>
<line x1="0.00" y1="150.00" x2="0.00" y2="172.00" stroke="#111" stroke-width="0.25" stroke-linecap="round"/>
<line x1="49.00" y1="150.00" x2="49.00" y2="172.00" stroke="#111" stroke-width="0.25" stroke-linecap="round"/>
<line x1="0.00" y1="170.00" x2="49.00" y2="170.00" stroke="#111" stroke-width="0.25" stroke-linecap="round"/>
<polygon points="0.00,170.00 3.00,170.90 3.00,169.10" fill="#111" stroke="#111" stroke-width="0.2" stroke-linejoin="round"/>
<polygon points="49.00,170.00 46.00,169.10 46.00,170.90" fill="#111" stroke="#111" stroke-width="0.2" stroke-linejoin="round"/>
<text x="24.50" y="174.20" font-size="3.5" text-anchor="middle" fill="#111" font-weight="normal">49</text>
<line x1="49.00" y1="170.00" x2="199.00" y2="170.00" stroke="#111" stroke-width="0.25" stroke-linecap="round"/>
<polygon points="49.00,170.00 52.00,170.90 52.00,169.10" fill="#111" stroke="#111" stroke-width="0.2" stroke-linejoin="round"/>
<polygon points="199.00,170.00 196.00,169.10 196.00,170.90" fill="#111" stroke="#111" stroke-width="0.2" stroke-linejoin="round"/>
<text x="124.00" y="174.20" font-size="3.5" text-anchor="middle" fill="#111" font-weight="normal">150</text>
<line x1="0.00" y1="0.00" x2="-12.00" y2="0.00" stroke="#111" stroke-width="0.25" stroke-linecap="round"/>
<line x1="0.00" y1="150.00" x2="-12.00" y2="150.00" stroke="#111" stroke-width="0.25" stroke-linecap="round"/>
<line x1="-10.00" y1="0.00" x2="-10.00" y2="150.00" stroke="#111" stroke-width="0.25" stroke-linecap="round"/>
<polygon points="-10.00,0.00 -10.90,3.00 -9.10,3.00" fill="#111" stroke="#111" stroke-width="0.2" stroke-linejoin="round"/>
<polygon points="-10.00,150.00 -9.10,147.00 -10.90,147.00" fill="#111" stroke="#111" stroke-width="0.2" stroke-linejoin="round"/>
<text x="-11.20" y="75.00" font-size="3.5" text-anchor="middle" fill="#111" font-weight="normal" transform="rotate(-90 -11.20 75.00)">150</text>
<line x1="248.00" y1="0.00" x2="260.00" y2="0.00" stroke="#111" stroke-width="0.25" stroke-linecap="round"/>
<line x1="248.00" y1="75.00" x2="260.00" y2="75.00" stroke="#111" stroke-width="0.25" stroke-linecap="round"/>
<line x1="258.00" y1="0.00" x2="258.00" y2="75.00" stroke="#111" stroke-width="0.25" stroke-linecap="round"/>
<polygon points="258.00,0.00 257.10,3.00 258.90,3.00" fill="#111" stroke="#111" stroke-width="0.2" stroke-linejoin="round"/>
<polygon points="258.00,75.00 258.90,72.00 257.10,72.00" fill="#111" stroke="#111" stroke-width="0.2" stroke-linejoin="round"/>
<text x="259.20" y="37.50" font-size="3.5" text-anchor="middle" fill="#111" font-weight="normal" transform="rotate(-90 259.20 37.50)">75</text>
<line x1="248.00" y1="0.00" x2="272.00" y2="0.00" stroke="#111" stroke-width="0.25" stroke-linecap="round"/>
<line x1="248.00" y1="12.00" x2="272.00" y2="12.00" stroke="#111" stroke-width="0.25" stroke-linecap="round"/>
<line x1="270.00" y1="0.00" x2="270.00" y2="12.00" stroke="#111" stroke-width="0.25" stroke-linecap="round"/>
<polygon points="270.00,0.00 269.10,3.00 270.90,3.00" fill="#111" stroke="#111" stroke-width="0.2" stroke-linejoin="round"/>
<polygon points="270.00,12.00 270.90,9.00 269.10,9.00" fill="#111" stroke="#111" stroke-width="0.2" stroke-linejoin="round"/>
<text x="271.20" y="6.00" font-size="3.5" text-anchor="middle" fill="#111" font-weight="normal" transform="rotate(-90 271.20 6.00)">12</text>
<line x1="270.00" y1="12.00" x2="270.00" y2="24.00" stroke="#111" stroke-width="0.25" stroke-linecap="round"/>
<polygon points="270.00,12.00 269.10,15.00 270.90,15.00" fill="#111" stroke="#111" stroke-width="0.2" stroke-linejoin="round"/>
<polygon points="270.00,24.00 270.90,21.00 269.10,21.00" fill="#111" stroke="#111" stroke-width="0.2" stroke-linejoin="round"/>
<text x="271.20" y="18.00" font-size="3.5" text-anchor="middle" fill="#111" font-weight="normal" transform="rotate(-90 271.20 18.00)">12</text>
<line x1="270.00" y1="24.00" x2="270.00" y2="36.00" stroke="#111" stroke-width="0.25" stroke-linecap="round"/>
<polygon points="270.00,24.00 269.10,27.00 270.90,27.00" fill="#111" stroke="#111" stroke-width="0.2" stroke-linejoin="round"/>
<polygon points="270.00,36.00 270.90,33.00 269.10,33.00" fill="#111" stroke="#111" stroke-width="0.2" stroke-linejoin="round"/>
<text x="271.20" y="30.00" font-size="3.5" text-anchor="middle" fill="#111" font-weight="normal" transform="rotate(-90 271.20 30.00)">12</text>
<line x1="248.00" y1="0.00" x2="284.00" y2="0.00" stroke="#111" stroke-width="0.25" stroke-linecap="round"/>
<line x1="248.00" y1="18.00" x2="284.00" y2="18.00" stroke="#111" stroke-width="0.25" stroke-linecap="round"/>
<line x1="282.00" y1="0.00" x2="282.00" y2="18.00" stroke="#111" stroke-width="0.25" stroke-linecap="round"/>
<polygon points="282.00,0.00 281.10,3.00 282.90,3.00" fill="#111" stroke="#111" stroke-width="0.2" stroke-linejoin="round"/>
<polygon points="282.00,18.00 282.90,15.00 281.10,15.00" fill="#111" stroke="#111" stroke-width="0.2" stroke-linejoin="round"/>
<text x="283.20" y="9.00" font-size="3.5" text-anchor="middle" fill="#111" font-weight="normal" transform="rotate(-90 283.20 9.00)">18</text>
<line x1="0.00" y1="0.00" x2="0.00" y2="-18.00" stroke="#111" stroke-width="0.25" stroke-linecap="round"/>
<line x1="124.00" y1="0.00" x2="124.00" y2="-18.00" stroke="#111" stroke-width="0.25" stroke-linecap="round"/>
<line x1="0.00" y1="-20.00" x2="124.00" y2="-20.00" stroke="#111" stroke-width="0.25" stroke-linecap="round"/>
<polygon points="0.00,-20.00 3.00,-19.10 3.00,-20.90" fill="#111" stroke="#111" stroke-width="0.2" stroke-linejoin="round"/>
<polygon points="124.00,-20.00 121.00,-20.90 121.00,-19.10" fill="#111" stroke="#111" stroke-width="0.2" stroke-linejoin="round"/>
<text x="62.00" y="-21.20" font-size="3.5" text-anchor="middle" fill="#111" font-weight="normal">124</text>
<line x1="21.00" y1="74.00" x2="45.00" y2="53.00" stroke="#111" stroke-width="0.25" stroke-linecap="round"/>
<polygon points="21.00,74.00 23.85,72.70 22.67,71.35" fill="#111" stroke="#111" stroke-width="0.2" stroke-linejoin="round"/>
<text x="46.00" y="54.20" font-size="3.5" text-anchor="start" fill="#111" font-weight="normal">2x Ø1,5</text>
<line x1="126.50" y1="19.50" x2="154.00" y2="48.00" stroke="#111" stroke-width="0.25" stroke-linecap="round"/>
<polygon points="126.50,19.50 127.94,22.28 129.23,21.03" fill="#111" stroke="#111" stroke-width="0.2" stroke-linejoin="round"/>
<text x="155.00" y="49.20" font-size="3.5" text-anchor="start" fill="#111" font-weight="normal">Ø6</text>
<line x1="79.00" y1="30.00" x2="109.00" y2="105.00" stroke="#111" stroke-width="0.25" stroke-linecap="round"/>
<polygon points="79.00,30.00 79.28,33.12 80.95,32.45" fill="#111" stroke="#111" stroke-width="0.2" stroke-linejoin="round"/>
<text x="110.00" y="106.20" font-size="3.5" text-anchor="start" fill="#111" font-weight="normal">latje, 2x</text>
<line x1="149.00" y1="17.00" x2="179.00" y2="117.00" stroke="#111" stroke-width="0.25" stroke-linecap="round"/>
<polygon points="149.00,17.00 149.00,20.13 150.72,19.61" fill="#111" stroke="#111" stroke-width="0.2" stroke-linejoin="round"/>
<text x="180.00" y="118.20" font-size="3.5" text-anchor="start" fill="#111" font-weight="normal">gleuf voor de plaat</text>
<text x="124.00" y="-27.00" font-size="3.2" text-anchor="middle" fill="#111" font-weight="normal">achterkant</text>
<text x="124.00" y="180.00" font-size="3.2" text-anchor="middle" fill="#111" font-weight="normal">voorkant</text>
<line x1="124.00" y1="-6.00" x2="124.00" y2="156.00" stroke="#111" stroke-width="0.9" stroke-linecap="round" stroke-dasharray="8 2 1.5 2"/>
<line x1="124.00" y1="-6.00" x2="116.00" y2="-6.00" stroke="#111" stroke-width="0.9" stroke-linecap="round"/>
<polygon points="116.00,-6.00 119.00,-5.10 119.00,-6.90" fill="#111" stroke="#111" stroke-width="0.2" stroke-linejoin="round"/>
<text x="113.00" y="-4.70" font-size="4" text-anchor="end" fill="#111" font-weight="bold">A</text>
<line x1="124.00" y1="156.00" x2="116.00" y2="156.00" stroke="#111" stroke-width="0.9" stroke-linecap="round"/>
<polygon points="116.00,156.00 119.00,156.90 119.00,155.10" fill="#111" stroke="#111" stroke-width="0.2" stroke-linejoin="round"/>
<text x="113.00" y="157.30" font-size="4" text-anchor="end" fill="#111" font-weight="bold">A</text>
<text x="0.00" y="189.00" font-size="4.5" text-anchor="start" fill="#111" font-weight="bold">Voet, bovenaanzicht</text>
<text x="0.00" y="195.00" font-size="3.2" text-anchor="start" fill="#111" font-weight="normal">maten in mm</text>
</svg>
